REM DIRINDEX 1\2\6,1\2\7,1\2\8,1\3\9,1\3\10,1\3\11,1\4\12,1\4\13,1\4\14,1\5\15,1\5\16,1\5\17,1\5\18
REM DIRNAME folder01,folder02,folder03,folder04,folder05,folder06,folder07,folder08,folder09,folder10,folder11,folder12,folder13,folder14,folder15,folder16,folder17,folder18
TITLE ""
FILE "" MP3
  TRACK 01 AUDIO
    TITLE "16:cjc019_6071"
    INDEX 01 00:00:00
  TRACK 02 AUDIO
    TITLE "0:"
    INDEX 01 00:00:70
  TRACK 03 AUDIO
    TITLE "18:cjc019_6072"
    INDEX 01 00:01:50
  TRACK 04 AUDIO
    TITLE "0:"
    INDEX 01 00:06:14
  TRACK 05 AUDIO
    TITLE "17:cjc019_6073"
    INDEX 01 00:07:00
  TRACK 06 AUDIO
    TITLE "0:"
    INDEX 01 00:08:05
  TRACK 07 AUDIO
    TITLE "16:cjc019_6074"
    INDEX 01 00:09:69
  TRACK 08 AUDIO
    TITLE "0:"
    INDEX 01 00:11:11
  TRACK 09 AUDIO
    TITLE "18:cjc019_6075"
    INDEX 01 00:11:70
  TRACK 10 AUDIO
    TITLE "0:"
    INDEX 01 00:13:33
  TRACK 11 AUDIO
    TITLE "17:cjc019_6076"
    INDEX 01 00:14:13
  TRACK 12 AUDIO
    TITLE "0:"
    INDEX 01 00:15:32
  TRACK 13 AUDIO
    TITLE "16:cjc019_6077"
    INDEX 01 00:17:12
  TRACK 14 AUDIO
    TITLE "0:"
    INDEX 01 00:18:23
  TRACK 15 AUDIO
    TITLE "18:cjc019_6078"
    INDEX 01 00:19:05
  TRACK 16 AUDIO
    TITLE "0:"
    INDEX 01 00:22:44
  TRACK 17 AUDIO
    TITLE "17:cjc019_6079"
    INDEX 01 00:23:24
  TRACK 18 AUDIO
    TITLE "0:"
    INDEX 01 00:24:37
  TRACK 19 AUDIO
    TITLE "16:cjc019_6080"
    INDEX 01 00:26:26
  TRACK 20 AUDIO
    TITLE "0:"
    INDEX 01 00:27:53
  TRACK 21 AUDIO
    TITLE "18:cjc019_6081"
    INDEX 01 00:28:33
  TRACK 22 AUDIO
    TITLE "0:"
    INDEX 01 00:32:03
  TRACK 23 AUDIO
    TITLE "17:cjc019_6082"
    INDEX 01 00:32:60
  TRACK 24 AUDIO
    TITLE "0:"
    INDEX 01 00:34:10
  TRACK 25 AUDIO
    TITLE "16:cjc019_6083"
    INDEX 01 00:35:70
  TRACK 26 AUDIO
    TITLE "0:"
    INDEX 01 00:37:26
  TRACK 27 AUDIO
    TITLE "18:cjc019_6084"
    INDEX 01 00:38:12
  TRACK 28 AUDIO
    TITLE "0:"
    INDEX 01 00:39:52
  TRACK 29 AUDIO
    TITLE "17:cjc019_6085"
    INDEX 01 00:40:28
  TRACK 30 AUDIO
    TITLE "0:"
    INDEX 01 00:41:65
  TRACK 31 AUDIO
    TITLE "16:cjc019_6086"
    INDEX 01 00:43:42
  TRACK 32 AUDIO
    TITLE "0:"
    INDEX 01 00:44:67
  TRACK 33 AUDIO
    TITLE "18:cjc019_6087"
    INDEX 01 00:45:47
  TRACK 34 AUDIO
    TITLE "0:"
    INDEX 01 00:48:14
  TRACK 35 AUDIO
    TITLE "17:cjc019_6088"
    INDEX 01 00:48:65
  TRACK 36 AUDIO
    TITLE "0:"
    INDEX 01 00:50:11
  TRACK 37 AUDIO
    TITLE "16:cjc019_6089"
    INDEX 01 00:51:69
  TRACK 38 AUDIO
    TITLE "0:"
    INDEX 01 00:53:02
  TRACK 39 AUDIO
    TITLE "18:cjc019_6090"
    INDEX 01 00:53:58
  TRACK 40 AUDIO
    TITLE "0:"
    INDEX 01 00:55:44
  TRACK 41 AUDIO
    TITLE "17:cjc019_6091"
    INDEX 01 00:56:20
  TRACK 42 AUDIO
    TITLE "0:"
    INDEX 01 00:57:25
  TRACK 43 AUDIO
    TITLE "16:cjc019_6092"
    INDEX 01 00:59:12
  TRACK 44 AUDIO
    TITLE "0:"
    INDEX 01 01:00:31
  TRACK 45 AUDIO
    TITLE "18:cjc019_6093"
    INDEX 01 01:01:11
  TRACK 46 AUDIO
    TITLE "0:"
    INDEX 01 01:02:61
  TRACK 47 AUDIO
    TITLE "17:cjc019_6094"
    INDEX 01 01:03:39
  TRACK 48 AUDIO
    TITLE "0:"
    INDEX 01 01:04:60
  TRACK 49 AUDIO
    TITLE "16:cjc019_6095"
    INDEX 01 01:06:43
  TRACK 50 AUDIO
    TITLE "0:"
    INDEX 01 01:07:55
  TRACK 51 AUDIO
    TITLE "18:cjc019_6096"
    INDEX 01 01:08:46
  TRACK 52 AUDIO
    TITLE "0:"
    INDEX 01 01:12:17
  TRACK 53 AUDIO
    TITLE "17:cjc019_6097"
    INDEX 01 01:12:68
  TRACK 54 AUDIO
    TITLE "0:"
    INDEX 01 01:14:14
  TRACK 55 AUDIO
    TITLE "16:cjc019_6098"
    INDEX 01 01:15:72
  TRACK 56 AUDIO
    TITLE "0:"
    INDEX 01 01:17:16
  TRACK 57 AUDIO
    TITLE "18:cjc019_6099"
    INDEX 01 01:18:02
  TRACK 58 AUDIO
    TITLE "0:"
    INDEX 01 01:23:07
  TRACK 59 AUDIO
    TITLE "17:cjc019_6100"
    INDEX 01 01:23:62
  TRACK 60 AUDIO
    TITLE "0:"
    INDEX 01 01:25:09
  TRACK 61 AUDIO
    TITLE "16:cjc019_6101"
    INDEX 01 01:26:68
  TRACK 62 AUDIO
    TITLE "0:"
    INDEX 01 01:28:41
  TRACK 63 AUDIO
    TITLE "18:cjc019_6102"
    INDEX 01 01:29:27
  TRACK 64 AUDIO
    TITLE "0:"
    INDEX 01 01:30:32
  TRACK 65 AUDIO
    TITLE "17:cjc019_6103"
    INDEX 01 01:31:14
  TRACK 66 AUDIO
    TITLE "0:"
    INDEX 01 01:32:68
  TRACK 67 AUDIO
    TITLE "16:cjc019_6104"
    INDEX 01 01:34:46
  TRACK 68 AUDIO
    TITLE "0:"
    INDEX 01 01:35:65
  TRACK 69 AUDIO
    TITLE "18:cjc019_6105"
    INDEX 01 01:36:47
  TRACK 70 AUDIO
    TITLE "0:"
    INDEX 01 01:39:72
  TRACK 71 AUDIO
    TITLE "17:cjc019_6106"
    INDEX 01 01:40:50
  TRACK 72 AUDIO
    TITLE "0:"
    INDEX 01 01:41:73
  TRACK 73 AUDIO
    TITLE "16:cjc019_6107"
    INDEX 01 01:43:54
  TRACK 74 AUDIO
    TITLE "0:"
    INDEX 01 01:44:64
  TRACK 75 AUDIO
    TITLE "18:cjc019_6108"
    INDEX 01 01:45:47
  TRACK 76 AUDIO
    TITLE "0:"
    INDEX 01 01:48:52
  TRACK 77 AUDIO
    TITLE "17:cjc019_6109"
    INDEX 01 01:49:28
  TRACK 78 AUDIO
    TITLE "0:"
    INDEX 01 01:50:43
  TRACK 79 AUDIO
    TITLE "16:cjc019_6110"
    INDEX 01 01:52:28
  TRACK 80 AUDIO
    TITLE "0:"
    INDEX 01 01:53:35
  TRACK 81 AUDIO
    TITLE "18:cjc019_6111"
    INDEX 01 01:54:13
  TRACK 82 AUDIO
    TITLE "0:"
    INDEX 01 01:57:41
  TRACK 83 AUDIO
    TITLE "17:cjc019_6112"
    INDEX 01 01:58:19
  TRACK 84 AUDIO
    TITLE "0:"
    INDEX 01 01:59:26
  TRACK 85 AUDIO
    TITLE "16:cjc019_6113"
    INDEX 01 02:01:11
  TRACK 86 AUDIO
    TITLE "0:"
    INDEX 01 02:02:44
  TRACK 87 AUDIO
    TITLE "18:cjc019_6114"
    INDEX 01 02:03:28
  TRACK 88 AUDIO
    TITLE "0:"
    INDEX 01 02:05:05
  TRACK 89 AUDIO
    TITLE "17:cjc019_6115"
    INDEX 01 02:05:56
  TRACK 90 AUDIO
    TITLE "0:"
    INDEX 01 02:07:14
  TRACK 91 AUDIO
    TITLE "16:cjc019_6116"
    INDEX 01 02:08:74
  TRACK 92 AUDIO
    TITLE "0:"
    INDEX 01 02:10:20
  TRACK 93 AUDIO
    TITLE "18:cjc019_6117"
    INDEX 01 02:10:71
  TRACK 94 AUDIO
    TITLE "0:"
    INDEX 01 02:13:59
  TRACK 95 AUDIO
    TITLE "17:cjc019_6118"
    INDEX 01 02:14:35
  TRACK 96 AUDIO
    TITLE "0:"
    INDEX 01 02:15:58
